<svg width="29" height="16" viewBox="0 0 29 32" fill="none" xmlns="http://www.w3.org/2000/svg">
<path d="M22.5799 4.92464C21.3606 3.5731 20.6886 1.83739 20.6891 0.0406494H15.1772V21.5164C15.1347 22.6785 14.6294 23.7793 13.7676 24.5869C12.9059 25.3946 11.7549 25.846 10.5572 25.8461C8.02424 25.8461 5.91938 23.8371 5.91938 21.3432C5.91938 18.3643 8.88046 16.1301 11.9307 17.048V11.5752C5.77668 10.7785 0.389648 15.42 0.389648 21.3432C0.389648 27.1104 5.31289 31.2151 10.5394 31.2151C16.1405 31.2151 20.6891 26.7987 20.6891 21.3432V10.4494C22.9242 12.0079 25.6076 12.8441 28.3594 12.8395V7.48787C28.3594 7.48787 25.0059 7.64374 22.5799 4.92464Z" fill="white"/>
</svg>
